<svg xmlns="http://www.w3.org/2000/svg" viewBox="0 0 512 512">
<defs><linearGradient id="bg" x1="0" y1="0" x2="1" y2="1"><stop stop-color="#0a2b52"/><stop offset="1" stop-color="#020817"/></linearGradient><linearGradient id="gold" x1="0" y1="0" x2="1" y2="1"><stop stop-color="#ffe184"/><stop offset="1" stop-color="#c58a1c"/></linearGradient><linearGradient id="blue" x1="0" y1="0" x2="0" y2="1"><stop stop-color="#2e7dea"/><stop offset="1" stop-color="#123a9c"/></linearGradient></defs>
<rect width="512" height="512" rx="104" fill="url(#bg)"/><circle cx="256" cy="256" r="204" fill="none" stroke="#e8bd4b" stroke-width="12" opacity=".9"/>
<path d="M114 150h284l-35-34H149zM126 154h38v215h-38zm222 0h38v215h-38zM102 365h308v24H102z" fill="url(#gold)"/>
<path d="M373 72 329 164h40l-55 90 15-59h-42z" fill="#ffd64e"/>
<circle cx="256" cy="151" r="48" fill="#edc88f"/><path d="M209 149c7-54 27-84 47-84 22 0 42 30 48 84-13-18-27-28-48-28-20 0-34 10-47 28z" fill="#f3f8ff"/><path d="M210 191c14 42 30 62 46 62 18 0 34-20 48-62-14-10-29-16-48-16-18 0-33 6-46 16z" fill="#f7fbff"/>
<path d="M176 251c18-34 46-51 80-51s62 17 80 51l18 96H158z" fill="url(#blue)"/><path d="M216 248h80l-8 39h-64z" fill="#f1d27a"/><path d="M185 342h37v92h-37zm105 0h37v92h-37z" fill="#fff9ef"/><path d="M169 430h65v22h-65zm109 0h65v22h-65z" fill="#58493c"/>
<path d="M333 232l34 20-45 70-31-18z" fill="#d59c52"/><path d="M365 201 343 249l22 13 25-49z" fill="#ffd64e" stroke="#fff0a5" stroke-width="4"/>
<text x="256" y="486" text-anchor="middle" font-family="Arial,sans-serif" font-size="39" font-weight="900" fill="#f4c95a">9A</text></svg>